<?xml version="1.0" encoding="UTF-8" standalone="no"?>
<svg width="300px" height="450px" viewBox="0 0 300 450" version="1.1" xmlns="http://www.w3.org/2000/svg" xmlns:xlink="http://www.w3.org/1999/xlink">
    <!-- Generator: Sketch 3.6.1 (26313) - http://www.bohemiancoding.com/sketch -->
    <title>developper</title>
    <desc>Created with Sketch.</desc>
    <defs></defs>
    <g id="Page-1" stroke="none" stroke-width="1" fill="none" fill-rule="evenodd">
        <g id="thema-circle" transform="translate(-301.000000, 0.000000)">
            <g id="developper" transform="translate(43.000000, 0.000000)">
                <path d="M258,0 C365.18,0 464.22,57.18 517.81,150 C571.4,242.82 571.4,357.18 517.81,450 L457.19,415 C498.28,343.84 498.28,256.16 457.19,185 C416.1,113.84 340.17,70 258,70 L258,0 Z" id="Segment-1" stroke="#FFFFFF" stroke-width="0.25" fill="#39C150"></path>
                <path d="M191.112915,52.7400256 C327.94697,16.0754509 468.5954,97.2788594 505.259974,234.112915 C541.924549,370.94697 460.721141,511.5954 323.887085,548.259974 C187.05303,584.924549 46.4046002,503.721141 9.74002556,366.887085 C-26.9245491,230.05303 54.2788594,89.4046002 191.112915,52.7400256 L191.112915,52.7400256 Z" id="Oval-1-Copy"></path>
                <path d="M280.476085,44.953115 L281.827038,28.4884264 L285.240859,28.7685355 C287.703299,28.9705825 289.474182,29.3149559 290.553561,29.801666 C292.104496,30.4923359 293.272894,31.5647732 294.058789,33.0190099 C294.844684,34.4732465 295.159257,36.155468 295.002518,38.0657247 C294.867208,39.7148135 294.391822,41.1369039 293.576346,42.3320387 C292.760871,43.5271734 291.759684,44.3765206 290.572757,44.8801056 C289.38583,45.3836906 287.766374,45.5512944 285.714341,45.3829219 L280.476085,44.953115 Z M282.181934,43.5268013 L284.084719,43.6829278 C286.360611,43.8696682 287.95042,43.8573852 288.854195,43.6460786 C290.12594,43.3447696 291.15925,42.699006 291.954157,41.7087685 C292.749065,40.7185309 293.208656,39.466044 293.332946,37.9512702 C293.463358,36.3618769 293.190504,34.9722931 292.514376,33.7824769 C291.838248,32.5926608 290.830844,31.7325031 289.492134,31.201978 C288.488101,30.8040841 286.803392,30.5080978 284.437957,30.3140103 L283.273901,30.2184976 L282.181934,43.5268013 Z M307.980786,44.5393069 L309.18788,45.4246791 C308.631692,46.2042444 308.03334,46.8109057 307.392803,47.2446812 C306.752267,47.6784566 306.060028,47.9776477 305.316065,48.1422635 C304.572101,48.3068792 303.755892,48.3224731 302.867413,48.1890457 C300.897951,47.8932817 299.454955,47.0160224 298.538382,45.5572414 C297.621808,44.0984605 297.285835,42.554654 297.530452,40.9257756 C297.760614,39.3931491 298.435902,38.0977372 299.556336,37.039501 C300.97743,35.6932936 302.687489,35.1703036 304.686567,35.4705152 C306.744877,35.7796219 308.271236,36.8075684 309.265689,38.5543854 C309.973688,39.7887839 310.211111,41.2326186 309.977967,42.8859327 L299.116364,41.2547911 C298.93472,42.6659973 299.20948,43.8864205 299.940652,44.9160973 C300.671823,45.9457741 301.674138,46.5562263 302.947624,46.7474722 C303.562156,46.8397595 304.176142,46.8221874 304.7896,46.6947554 C305.403058,46.5673233 305.940075,46.3564917 306.400665,46.0622543 C306.861256,45.7680169 307.387957,45.2603728 307.980786,44.5393069 L307.980786,44.5393069 Z M308.469461,41.2852684 C308.386681,40.4248881 308.184486,39.7169317 307.86287,39.1613778 C307.541253,38.6058239 307.07747,38.1273489 306.471506,37.7259385 C305.865542,37.324528 305.203477,37.0698997 304.48529,36.9620459 C303.300651,36.7841428 302.225355,37.0125594 301.259371,37.6473027 C300.554043,38.109203 299.958811,38.8715354 299.473655,39.9343229 L308.469461,41.2852684 Z M313.272051,37.5761013 L314.909472,37.9209502 L317.076591,47.4670034 L322.876786,39.598906 L324.525195,39.9460693 L316.534384,50.7499528 L316.259649,50.6920923 L313.272051,37.5761013 Z M335.252043,51.4914784 L336.356328,52.5021797 C335.719109,53.2170353 335.058667,53.7554415 334.374984,54.1174143 C333.6913,54.4793872 332.970768,54.7019741 332.213367,54.785182 C331.455966,54.8683898 330.642856,54.7956378 329.774014,54.5669238 C327.848079,54.0599412 326.508398,53.0317979 325.754933,51.4824631 C325.001468,49.9331283 324.834392,48.3620452 325.253701,46.7691666 C325.648232,45.2704127 326.459631,44.0556128 327.68792,43.1247305 C329.246243,41.9400748 331.002827,41.6050552 332.957723,42.1196616 C334.970542,42.6495156 336.376803,43.8364763 337.176547,45.6805794 C337.746922,46.9842947 337.826836,48.4453362 337.41629,50.0637478 L326.794739,47.2677335 C326.46157,48.6510252 326.602758,49.8940022 327.218307,50.9967017 C327.833856,52.0994012 328.764287,52.8146519 330.009628,53.1424753 C330.610578,53.3006691 331.222864,53.3495886 331.846504,53.2892353 C332.470145,53.228882 333.02681,53.0773527 333.516515,52.8346427 C334.00622,52.5919328 334.584724,52.1442159 335.252043,51.4914784 L335.252043,51.4914784 Z M336.089704,48.3093573 C336.10044,47.4450707 335.97598,46.7194022 335.71632,46.1323299 C335.456659,45.5452577 335.047331,45.0194403 334.488324,44.5548621 C333.929316,44.0902839 333.298665,43.7655611 332.59635,43.580684 C331.437893,43.275732 330.344204,43.3865407 329.31525,43.9131132 C328.564114,44.2960403 327.889942,44.9895423 327.292714,45.99364 L336.089704,48.3093573 Z M343.626718,40.9482954 L345.121267,41.4364985 L339.862622,57.5349271 L338.368073,57.046724 L343.626718,40.9482954 Z M352.496024,48.6633641 C354.271678,49.2786681 355.52004,50.4323073 356.241146,52.1243162 C356.89536,53.6663649 356.944231,55.240301 356.387761,56.8461716 C355.828839,58.4591166 354.779772,59.6743824 353.240527,60.4920054 C351.701281,61.3096285 350.050931,61.4132378 348.289425,60.8028367 C346.520845,60.1899841 345.284916,59.0862143 344.581602,57.4914942 C343.878288,55.896774 343.806093,54.2929655 344.365014,52.6800206 C344.919033,51.0812242 345.930068,49.8785313 347.39815,49.0719057 C349.014021,48.1817878 350.713295,48.0456087 352.496024,48.6633641 L352.496024,48.6633641 Z M351.992262,50.1171296 C350.76133,49.6905842 349.545622,49.7803906 348.3451,50.3865516 C347.144578,50.9927126 346.320025,51.9430792 345.871417,53.2376797 C345.58215,54.0724495 345.514114,54.9204772 345.667307,55.7817882 C345.820499,56.6430993 346.172168,57.3889494 346.722324,58.019361 C347.27248,58.6497725 347.957858,59.1071533 348.778479,59.3915169 C349.5991,59.6758805 350.420529,59.7406423 351.242792,59.5858044 C352.065054,59.4309664 352.802814,59.0626278 353.456094,58.4807775 C354.109374,57.8989273 354.580641,57.1906279 354.869907,56.3558581 C355.318515,55.0612576 355.257023,53.8038565 354.685427,52.5836172 C354.113832,51.3633779 353.216119,50.5412236 351.992262,50.1171296 L351.992262,50.1171296 Z M361.660274,52.7703832 L363.102834,53.3669169 L362.244512,55.4425423 C363.144935,54.8912709 364.050289,54.5729532 364.960599,54.4875798 C365.87091,54.4022064 366.786151,54.5497797 367.70635,54.9303043 C369.311508,55.5940764 370.445969,56.7397036 371.109768,58.3672202 C371.773566,59.9947367 371.769287,61.621428 371.096932,63.2473427 C370.410271,64.9078513 369.261731,66.0836425 367.651278,66.7747515 C366.040824,67.4658605 364.436501,67.4809592 362.838262,66.8200481 C361.93882,66.4481069 361.189285,65.9194077 360.589636,65.2339348 C359.989987,64.5484619 359.538811,63.7096952 359.236094,62.7176094 L356.725503,68.7888138 L355.282944,68.1922802 L361.660274,52.7703832 Z M367.012823,56.2841437 C365.753604,55.7634259 364.51164,55.7643073 363.286893,56.2867878 C362.062146,56.8092683 361.179413,57.7243201 360.638668,59.0319707 C360.283893,59.8899002 360.15688,60.7407272 360.257625,61.5844773 C360.35837,62.4282275 360.683813,63.198797 361.233965,63.8962091 C361.784116,64.5936212 362.457012,65.106832 363.252672,65.435857 C364.034495,65.7591598 364.853291,65.8607742 365.709083,65.7407034 C366.564876,65.6206325 367.347072,65.281768 368.055694,64.7240996 C368.764317,64.1664312 369.283133,63.4897769 369.612158,62.6941165 C369.944044,61.8915373 370.056387,61.0467968 369.949191,60.1598694 C369.841995,59.2729421 369.528178,58.4889513 369.007731,57.8078735 C368.487284,57.1267957 367.822321,56.6188909 367.012823,56.2841437 L367.012823,56.2841437 Z M376.601263,59.6067699 L378.004866,60.2899456 L377.02188,62.3095184 C377.954168,61.8140379 378.877207,61.5513798 379.791025,61.521536 C380.704844,61.4916923 381.609413,61.6946638 382.504762,62.1304568 C384.066572,62.890637 385.129248,64.1031489 385.69282,65.7680287 C386.256392,67.4329086 386.153174,69.0563275 385.383164,70.6383341 C384.596771,72.2540004 383.378837,73.357752 381.729328,73.949622 C380.079818,74.541492 378.477548,74.4589764 376.922469,73.7020728 C376.047316,73.2761098 375.331329,72.7027976 374.774486,71.982119 C374.217643,71.2614405 373.818322,70.3967831 373.576511,69.388121 L370.701275,75.2953714 L369.297672,74.6121956 L376.601263,59.6067699 Z M381.730169,63.4396041 C380.504956,62.8432559 379.265237,62.7685905 378.010977,63.2156057 C376.756717,63.6626209 375.819959,64.5222842 375.200674,65.7946214 C374.794371,66.6293824 374.61584,67.4709081 374.665075,68.3192239 C374.714311,69.1675397 374.99228,69.9564782 375.498991,70.686063 C376.005702,71.4156478 376.646135,71.9688386 377.420308,72.3456521 C378.181018,72.7159123 378.992116,72.8671436 379.853628,72.7993505 C380.71514,72.7315574 381.516499,72.440899 382.257731,71.9273667 C382.998963,71.4138344 383.557977,70.7699912 383.93479,69.9958177 C384.314881,69.2149124 384.478399,68.3785695 384.425351,67.4867641 C384.372303,66.5949586 384.106755,65.793331 383.628699,65.081857 C383.150643,64.370383 382.517806,63.8229709 381.730169,63.4396041 L381.730169,63.4396041 Z M396.035044,79.4996997 L396.84689,80.7574223 C396.049205,81.2872948 395.273807,81.6405974 394.520674,81.8173405 C393.767541,81.9940837 393.014116,82.026653 392.260375,81.9150494 C391.506635,81.8034459 390.738561,81.526853 389.956132,81.0852624 C388.221747,80.1064034 387.186624,78.7721084 386.850734,77.0823374 C386.514843,75.3925665 386.751686,73.8304774 387.561269,72.3960235 C388.323012,71.0463327 389.415977,70.077037 390.840195,69.4881073 C392.648018,68.7374041 394.432136,68.85884 396.192603,69.8524187 C398.005231,70.8754368 399.064478,72.3802426 399.370375,74.3668813 C399.591456,75.7726285 399.298209,77.2061679 398.490628,78.6675424 L388.925476,73.269125 C388.252372,74.5226913 388.073701,75.7608362 388.38946,76.9835967 C388.705218,78.2063573 389.423827,79.1341969 390.54531,79.7671433 C391.08649,80.0725768 391.66635,80.2751838 392.284907,80.3749705 C392.903464,80.4747572 393.480358,80.4693626 394.015608,80.3587865 C394.550858,80.2482104 395.223996,79.961851 396.035044,79.4996997 L396.035044,79.4996997 Z M397.652361,76.6340663 C397.881945,75.800761 397.945597,75.0672533 397.843319,74.4335211 C397.74104,73.7997889 397.478453,73.1873504 397.055548,72.5961873 C396.632643,72.0050242 396.104967,71.5309735 395.472503,71.1740212 C394.429264,70.5852338 393.34323,70.4150398 392.21437,70.6634341 C391.390675,70.8433391 390.562661,71.3431842 389.730302,72.1629844 L397.652361,76.6340663 Z M403.944833,75.1864543 L405.295364,76.0554565 L404.329131,77.5570955 C405.112912,77.2245356 405.8225,77.0556929 406.457917,77.0505623 C407.093334,77.0454316 407.653439,77.1988396 408.138247,77.5107906 C408.503427,77.7457668 408.818838,78.1134226 409.08449,78.6137691 L407.677979,79.2845764 C407.477921,78.9866907 407.283451,78.7769812 407.094565,78.6554418 C406.65383,78.3718499 406.112369,78.2794038 405.470164,78.3781006 C404.82796,78.4767975 404.154728,78.838189 403.450448,79.462286 C402.909975,79.9424995 402.06649,81.0735033 400.919968,82.8553312 L398.683655,86.3308227 L397.333124,85.4618205 L403.944833,75.1864543 Z M414.950757,82.7300984 L416.3095,83.7067672 L414.437426,93.3150384 L422.920837,88.4590146 L424.288699,89.4422383 L412.615747,96.0995002 L412.387769,95.9356296 L414.950757,82.7300984 Z M431.202102,94.8905451 C432.671914,96.0615269 433.465375,97.56476 433.582508,99.4002895 C433.686448,101.072147 433.208917,102.572689 432.149902,103.901962 C431.086221,105.23709 429.692613,106.034129 427.969037,106.293103 C426.245461,106.552077 424.654646,106.100745 423.196545,104.939094 C421.732588,103.772777 420.934261,102.320709 420.801541,100.582846 C420.66882,98.8449825 421.134293,97.3085097 422.197974,95.9733812 C423.252324,94.6499643 424.605883,93.8521292 426.258691,93.579852 C428.078647,93.2780046 429.726434,93.7148979 431.202102,94.8905451 L431.202102,94.8905451 Z M430.243394,96.0939115 C429.224481,95.2821551 428.048143,94.9624034 426.714345,95.1346468 C425.380547,95.3068901 424.286793,95.9288106 423.433049,97.0004269 C422.882548,97.6914145 422.536265,98.4685038 422.394189,99.3317184 C422.252114,100.194933 422.335622,101.015292 422.644715,101.792822 C422.953808,102.570351 423.447985,103.229691 424.127261,103.770862 C424.806537,104.312033 425.559632,104.64638 426.38657,104.773912 C427.213507,104.901444 428.031783,104.799525 428.841423,104.468151 C429.651062,104.136777 430.331122,103.625604 430.881623,102.934616 C431.735367,101.863 432.09569,100.656763 431.962603,99.3158709 C431.829516,97.9749783 431.256453,96.9010025 430.243394,96.0939115 L430.243394,96.0939115 Z M442.138927,106.892572 L440.689114,106.994967 C440.609969,105.827539 440.27226,104.976337 439.675977,104.441336 C439.297031,104.101336 438.859926,103.935474 438.364648,103.943747 C437.86937,103.95202 437.471737,104.123336 437.171737,104.4577 C436.906737,104.753055 436.765693,105.134472 436.748602,105.601963 C436.726511,106.075028 436.907118,106.815449 437.290427,107.82325 C437.754773,109.054643 437.95548,110.019302 437.892552,110.717257 C437.819052,111.415785 437.544806,112.029745 437.069806,112.559155 C436.399805,113.305901 435.570398,113.7034 434.581561,113.751664 C433.592723,113.799928 432.70544,113.471564 431.919685,112.766563 C431.395848,112.296563 430.998201,111.733579 430.726732,111.077597 C430.455264,110.421614 430.343495,109.753014 430.391422,109.071777 L431.877017,108.895869 C431.868298,110.10517 432.198298,111.009808 432.867026,111.609808 C433.335136,112.029809 433.868579,112.236842 434.46737,112.230915 C435.066162,112.224988 435.548051,112.018623 435.913051,111.611813 C436.213051,111.277449 436.371881,110.881814 436.389545,110.424895 C436.402208,109.973549 436.201811,109.210341 435.788347,108.135249 C435.349155,106.976721 435.166885,106.058779 435.241531,105.381396 C435.316176,104.704013 435.590995,104.100626 436.065996,103.571217 C436.685997,102.880198 437.436434,102.517462 438.31733,102.482998 C439.198227,102.448535 439.998104,102.753798 440.716987,103.398799 C441.552897,104.1488 442.026872,105.313379 442.138927,106.892572 L442.138927,106.892572 Z M449.573126,112.501718 L450.702409,113.643567 L449.4328,114.899202 C450.270137,114.745009 450.999461,114.734486 451.620793,114.867632 C452.242125,115.000778 452.755476,115.272295 453.160861,115.682191 C453.466217,115.990945 453.694146,116.418383 453.844656,116.964518 L452.325944,117.313472 C452.195438,116.979215 452.051217,116.73224 451.893274,116.57254 C451.524742,116.199907 451.016333,115.991947 450.368033,115.948653 C449.719733,115.905359 448.984032,116.11173 448.160907,116.567771 C447.528954,116.918986 446.459742,117.839541 444.953239,119.329464 L442.014775,122.23559 L440.885492,121.093741 L449.573126,112.501718 Z M456.050399,131.258049 L456.448417,132.70115 C455.528675,132.967873 454.683066,133.0728 453.911565,133.015934 C453.140064,132.959068 452.411452,132.764555 451.725707,132.43239 C451.039963,132.100224 450.389943,131.606346 449.775629,130.950742 C448.4139,129.497487 447.825777,127.914474 448.011241,126.201654 C448.196706,124.488834 448.890399,123.069325 450.092339,121.943082 C451.223256,120.883391 452.556301,120.285816 454.091515,120.150339 C456.041173,119.975369 457.70708,120.625428 459.089286,122.100537 C460.512447,123.619352 461.072534,125.372278 460.769565,127.359365 C460.559599,128.766815 459.850581,130.046785 458.642489,131.199311 L451.132538,123.184594 C450.114976,124.179112 449.573782,125.306957 449.508939,126.568163 C449.444096,127.82937 449.851927,128.929806 450.732444,129.869505 C451.157344,130.322964 451.649938,130.689896 452.210239,130.970311 C452.77054,131.250726 453.322584,131.418311 453.866386,131.47307 C454.410188,131.52783 455.138185,131.456156 456.050399,131.258049 L456.050399,131.258049 Z M458.451536,129.008135 C458.920093,128.281801 459.200449,127.601003 459.292613,126.965721 C459.384777,126.330439 459.317611,125.667475 459.091112,124.976808 C458.864613,124.286142 458.503084,123.675844 458.006513,123.145898 C457.187428,122.271759 456.202178,121.784197 455.050734,121.683196 C454.210962,121.608219 453.271273,121.837212 452.231639,122.370179 L458.451536,129.008135 Z M468.750712,126.785371 L469.756767,127.993623 L456.742169,138.830273 L455.736114,137.622021 L468.750712,126.785371 Z M475.925268,143.233987 L466.395882,150.881774 L465.42585,149.673083 L467.063713,148.35862 C466.026545,148.346198 465.093752,148.146825 464.265304,147.760495 C463.436857,147.374165 462.718043,146.801466 462.108841,146.042381 C461.026336,144.693545 460.591022,143.149337 460.802886,141.409709 C461.014749,139.670081 461.821362,138.237948 463.22275,137.113268 C464.594941,136.012018 466.155189,135.551833 467.903538,135.732697 C469.651888,135.913561 471.069637,136.681318 472.156828,138.035993 C472.784774,138.818434 473.186551,139.65997 473.362171,140.560625 C473.53779,141.461281 473.484904,142.418109 473.203511,143.43114 L474.955237,142.025296 L475.925268,143.233987 Z M471.051735,139.081282 C470.503453,138.398105 469.829482,137.902216 469.029803,137.593598 C468.230123,137.28498 467.389592,137.203559 466.508183,137.349333 C465.626774,137.495106 464.847413,137.839785 464.170076,138.38338 C463.498578,138.92229 462.994525,139.610011 462.657902,140.446567 C462.321278,141.283122 462.215311,142.128953 462.339997,142.984086 C462.464682,143.839219 462.794131,144.599603 463.328354,145.265262 C463.867264,145.93676 464.54738,146.437317 465.368724,146.766948 C466.190068,147.096579 467.019804,147.191464 467.857959,147.051604 C468.696114,146.911744 469.477204,146.551277 470.201254,145.970193 C471.304847,145.084507 471.935704,143.980624 472.093843,142.658511 C472.251983,141.336398 471.904617,140.144001 471.051735,139.081282 L471.051735,139.081282 Z M482.621424,145.460863 L483.53454,146.75457 L479.827748,149.370875 L481.26542,151.407776 L480.164393,152.184896 L478.72672,150.147996 L469.845099,156.416766 L468.931983,155.123059 L477.813604,148.854288 L476.576688,147.10182 L477.677715,146.324699 L478.914631,148.077168 L482.621424,145.460863 Z M487.180989,151.406202 C487.37915,151.706008 487.442231,152.03227 487.370233,152.384997 C487.298235,152.737724 487.112336,153.013164 486.81253,153.211326 C486.51897,153.405359 486.195832,153.466376 485.843104,153.394378 C485.490377,153.32238 485.214937,153.136481 485.016775,152.836675 C484.822742,152.543115 484.761725,152.219976 484.833723,151.867249 C484.905721,151.514522 485.088497,151.241146 485.382057,151.047113 C485.681863,150.848951 486.008125,150.78587 486.360852,150.857868 C486.713579,150.929866 486.986955,151.112642 487.180989,151.406202 L487.180989,151.406202 Z M482.55025,153.52463 L483.423395,154.845644 L473.230044,161.583108 L472.356898,160.262095 L482.55025,153.52463 Z M488.643463,162.499321 C489.651163,164.085539 489.911142,165.765331 489.423408,167.538747 C488.976567,169.153133 488.035886,170.41598 486.601338,171.327326 C485.160471,172.242687 483.583147,172.541792 481.86932,172.22465 C480.155493,171.907508 478.798764,170.962161 477.799093,169.388583 C476.795408,167.808684 476.514147,166.175675 476.955301,164.489506 C477.396455,162.803337 478.337452,161.502591 479.778319,160.58723 C481.206548,159.679898 482.746271,159.366983 484.397534,159.648475 C486.216452,159.956511 487.631748,160.906783 488.643463,162.499321 L488.643463,162.499321 Z M487.344792,163.324346 C486.646227,162.224737 485.638425,161.538918 484.321355,161.266871 C483.004284,160.994823 481.767525,161.226145 480.611039,161.960842 C479.865327,162.434582 479.2846,163.056303 478.868842,163.826023 C478.453084,164.595743 478.264554,165.398501 478.303246,166.23432 C478.341939,167.070139 478.594136,167.854573 479.059846,168.587646 C479.525556,169.320719 480.128486,169.882338 480.868653,170.27252 C481.60882,170.662703 482.415611,170.833148 483.28905,170.783861 C484.162489,170.734575 484.972053,170.473065 485.717765,169.999326 C486.87425,169.264628 487.608171,168.241789 487.919549,166.930779 C488.230926,165.619768 488.039343,164.417636 487.344792,163.324346 L487.344792,163.324346 Z M493.256049,171.411307 L494.019142,172.785974 L492.104427,173.848853 C493.142825,173.991737 494.028988,174.296187 494.762941,174.76221 C495.496894,175.228233 496.08189,175.853999 496.517945,176.639527 C496.961268,177.438147 497.151695,178.259394 497.089232,179.103292 C497.026769,179.947191 496.733634,180.707189 496.209818,181.38331 C495.686002,182.059431 494.697495,182.800832 493.244269,183.607533 L487.745601,186.659904 L486.98796,185.295056 L492.084046,182.466163 C493.314706,181.78301 494.107155,181.274608 494.461417,180.940942 C495.077547,180.384841 495.438621,179.781939 495.54465,179.132219 C495.650679,178.482499 495.50202,177.794342 495.098669,177.067729 C494.637178,176.236379 493.948909,175.644392 493.033844,175.291751 C492.118778,174.93911 491.197262,174.883348 490.269269,175.124465 C489.666362,175.28788 488.661221,175.760214 487.253817,176.541479 L483.336017,178.716293 L482.572924,177.341626 L493.256049,171.411307 Z M507.788081,201.643835 L496.665332,206.70173 L496.023797,205.29094 L497.93552,204.421614 C496.933536,204.153471 496.078858,203.729939 495.37146,203.151006 C494.664062,202.572072 494.108923,201.839613 493.706025,200.953605 C492.990106,199.379237 492.94958,197.775355 493.584445,196.141912 C494.21931,194.508468 495.354579,193.319858 496.990285,192.576046 C498.591915,191.847731 500.21748,191.787063 501.86703,192.394043 C503.51658,193.001022 504.700846,194.095087 505.419864,195.67627 C505.835159,196.58954 506.016696,197.504226 505.96448,198.420357 C505.912265,199.336488 505.624749,200.250628 505.101924,201.162805 L507.146547,200.233045 L507.788081,201.643835 Z M504.09088,196.416312 C503.728272,195.618905 503.19762,194.971949 502.49891,194.475425 C501.8002,193.978901 501.005801,193.692451 500.115691,193.616066 C499.225581,193.539681 498.385242,193.681241 497.594651,194.04075 C496.810875,194.397159 496.152612,194.939121 495.619844,195.666649 C495.087077,196.394178 494.775531,197.187651 494.6852,198.047092 C494.594868,198.906533 494.726356,199.724721 495.079667,200.501682 C495.436076,201.285458 495.971531,201.938454 496.686046,202.460691 C497.400561,202.982927 498.181174,203.279758 499.02791,203.351193 C499.874645,203.422628 500.720558,203.266196 501.565673,202.881893 C502.853792,202.296142 503.737692,201.382218 504.217401,200.140095 C504.697111,198.897972 504.654937,197.656723 504.09088,196.416312 L504.09088,196.416312 Z M508.582071,204.694806 L509.180262,206.257571 L502.334841,213.254981 L512.090926,213.861627 L512.693133,215.434879 L499.28248,214.579683 L499.182112,214.317474 L508.582071,204.694806 Z M508.816965,230.704566 L508.567278,232.18058 C507.621039,232.033272 506.810408,231.770706 506.135359,231.392874 C505.460311,231.015041 504.882344,230.530619 504.401441,229.939593 C503.920538,229.348567 503.540402,228.626114 503.261023,227.772214 C502.641733,225.879402 502.77833,224.196202 503.670819,222.722563 C504.563308,221.248924 505.792276,220.256022 507.357759,219.743827 C508.830737,219.261898 510.291424,219.284208 511.739866,219.810757 C513.580561,220.476805 514.815192,221.770447 515.443795,223.691723 C516.091023,225.669924 515.857158,227.495233 514.742191,229.167703 C513.956655,230.354267 512.772817,231.214242 511.190643,231.747653 L507.77525,221.308777 C506.432554,221.779591 505.465131,222.572698 504.872952,223.688122 C504.280773,224.803546 504.184906,225.973202 504.58535,227.197125 C504.778587,227.78774 505.069761,228.328577 505.458881,228.819653 C505.848,229.310729 506.277358,229.696071 506.746967,229.975691 C507.216576,230.25531 507.906568,230.498266 508.816965,230.704566 L508.816965,230.704566 Z M511.944358,229.681345 C512.676143,229.221348 513.218129,228.723015 513.570334,228.186331 C513.922538,227.649647 514.142072,227.020491 514.228943,226.298843 C514.315815,225.577195 514.246335,224.871264 514.020504,224.181028 C513.647998,223.042494 512.961421,222.18398 511.960752,221.60546 C511.231499,221.182342 510.283144,220.992407 509.115658,221.03565 L511.944358,229.681345 Z M518.299429,245.531605 L517.231226,244.524936 C518.337595,243.116649 518.65215,241.511457 518.174901,239.709313 C517.793485,238.269045 517.013566,237.195725 515.835121,236.489323 C514.656677,235.782921 513.405239,235.605097 512.080771,235.955847 C511.219505,236.183929 510.466893,236.617524 509.82291,237.256644 C509.178928,237.895765 508.748159,238.652676 508.53059,239.527402 C508.313021,240.402128 508.329778,241.313535 508.580861,242.261651 C509.04086,243.998658 510.107694,245.234154 511.781394,245.968176 L511.308012,247.383092 C510.311721,247.042814 509.454158,246.458629 508.735296,245.630518 C508.016434,244.802408 507.496012,243.780416 507.174012,242.564511 C506.679513,240.697229 506.862822,238.991257 507.723944,237.446544 C508.585066,235.901832 509.866018,234.904282 511.566837,234.453867 C512.710366,234.151034 513.848644,234.157455 514.981704,234.473131 C516.114764,234.788807 517.089513,235.376811 517.905981,236.237161 C518.72245,237.097511 519.295508,238.150098 519.625174,239.394953 C519.832174,240.176606 519.912565,240.962731 519.866352,241.753353 C519.820138,242.543974 519.672322,243.24338 519.422899,243.85159 C519.173476,244.4598 518.79899,245.019799 518.299429,245.531605 L518.299429,245.531605 Z M526.992666,254.110273 L527.269613,255.657955 L510.598868,258.641075 L510.321921,257.093394 L526.992666,254.110273 Z M525.097092,271.951108 L513.032875,273.888249 L512.787172,272.358045 L514.860709,272.025099 C513.965276,271.501581 513.25299,270.86715 512.72383,270.121787 C512.19467,269.376424 511.852942,268.523254 511.698634,267.562251 C511.424442,265.854624 511.809412,264.297101 512.853556,262.889637 C513.8977,261.482172 515.30683,260.636015 517.080988,260.35114 C518.818185,260.0722 520.401945,260.443479 521.832315,261.464987 C523.262685,262.486496 524.115547,263.854739 524.390926,265.569759 C524.549981,266.560331 524.483222,267.490466 524.190647,268.360191 C523.898071,269.229916 523.379095,270.03551 522.633702,270.776996 L524.851389,270.420904 L525.097092,271.951108 Z M522.913572,265.932094 C522.774696,265.067192 522.433978,264.302958 521.891408,263.639368 C521.348838,262.975779 520.658444,262.48949 519.820203,262.180484 C518.981963,261.871479 518.134101,261.785822 517.276591,261.923512 C516.426473,262.060015 515.648345,262.408651 514.942182,262.969431 C514.23602,263.530211 513.725773,264.213078 513.411426,265.018053 C513.097079,265.823028 513.007565,266.646865 513.142881,267.489591 C513.279383,268.339708 513.623136,269.111038 514.17415,269.803603 C514.725164,270.496168 515.39952,270.988824 516.197237,271.281588 C516.994955,271.574351 517.852125,271.647139 518.768774,271.499953 C520.165924,271.275614 521.260005,270.627909 522.051052,269.556818 C522.842099,268.485727 523.129602,267.277498 522.913572,265.932094 L522.913572,265.932094 Z M525.698792,282.930162 L525.812768,284.487031 L523.572669,284.651025 C524.469283,285.208471 525.159909,285.874824 525.644568,286.650104 C526.129227,287.425385 526.407905,288.309569 526.48061,289.302685 C526.607432,291.035037 526.092453,292.562865 524.935656,293.886216 C523.778858,295.209568 522.323105,295.935464 520.568352,296.063927 C518.776264,296.195123 517.210191,295.69608 515.870085,294.566784 C514.52998,293.437488 513.7968,292.010419 513.670524,290.285534 C513.599459,289.31482 513.735742,288.407764 514.079377,287.564338 C514.423012,286.720912 514.970255,285.941416 515.721123,285.225825 L509.168833,285.705508 L509.054857,284.14864 L525.698792,282.930162 Z M524.959523,289.290176 C524.860033,287.931176 524.30211,286.821582 523.285739,285.961361 C522.269368,285.101139 521.055566,284.722693 519.644296,284.82601 C518.718384,284.893795 517.900992,285.161952 517.192095,285.630491 C516.483197,286.09903 515.940502,286.735562 515.563992,287.540105 C515.187483,288.344649 515.030663,289.176263 515.093527,290.034972 C515.155299,290.878746 515.431787,291.656118 515.923,292.367108 C516.414214,293.078099 517.067956,293.625165 517.884247,294.008321 C518.700538,294.391478 519.538025,294.551622 520.396734,294.488757 C521.26291,294.425345 522.068282,294.146807 522.812874,293.653134 C523.557467,293.159461 524.117373,292.5273 524.492609,291.756631 C524.867845,290.985962 525.023481,290.163819 524.959523,289.290176 L524.959523,289.290176 Z M526.278012,298.741106 L526.296529,300.346956 L524.511003,300.367546 C525.220261,300.838568 525.752009,301.337836 526.106261,301.865364 C526.460514,302.392893 526.640961,302.94488 526.647608,303.521342 C526.652615,303.95556 526.519469,304.421314 526.248166,304.918618 L524.913606,304.114129 C525.052051,303.783082 525.119978,303.505265 525.117388,303.280669 C525.111345,302.756613 524.890283,302.253762 524.454197,301.772103 C524.018111,301.290443 523.345676,300.92757 522.436872,300.683475 C521.738381,300.496854 520.329814,300.41576 518.211129,300.440192 L514.078592,300.487846 L514.060074,298.881995 L526.278012,298.741106 Z M517.897794,316.745051 L517.180851,318.059187 C516.334232,317.611636 515.653371,317.099296 515.138249,316.522151 C514.623126,315.945005 514.234515,315.298714 513.972403,314.583258 C513.710291,313.867802 513.586267,313.06092 513.600328,312.162588 C513.631494,310.171286 514.309017,308.624423 515.632916,307.521954 C516.956816,306.419484 518.442214,305.881146 520.089156,305.906923 C521.638779,305.931177 523.012503,306.428154 524.210371,307.397869 C525.733644,308.627268 526.479452,310.252566 526.447816,312.273813 C526.415244,314.354949 525.599462,316.004477 524.000445,317.222447 C522.87119,318.088349 521.471767,318.515716 519.802132,318.50456 L519.974015,307.522506 C518.551188,307.530189 517.378157,307.964843 516.454887,308.826481 C515.531617,309.688119 515.059913,310.762726 515.03976,312.050335 C515.030036,312.671681 515.129121,313.277874 515.337021,313.868931 C515.54492,314.459987 515.82531,314.964188 516.178198,315.381547 C516.531087,315.798907 517.10428,316.253403 517.897794,316.745051 L517.897794,316.745051 Z M521.187918,316.796545 C522.029642,316.600057 522.704412,316.305489 523.212249,315.912833 C523.720086,315.520177 524.132619,314.99687 524.44986,314.342897 C524.767101,313.688924 524.931401,312.998873 524.942766,312.272721 C524.961513,311.074945 524.592095,310.039588 523.834501,309.166618 C523.282885,308.528998 522.448152,308.040457 521.330275,307.700979 L521.187918,316.796545 Z M523.62513,328.258502 L522.658712,327.172926 C523.534866,326.397357 524.002709,325.610137 524.062253,324.811242 C524.100095,324.303533 523.964521,323.856106 523.655527,323.468948 C523.346533,323.08179 522.968052,322.87152 522.520074,322.83813 C522.12436,322.808636 521.736187,322.929858 521.355545,323.201798 C520.967436,323.473183 520.491385,324.068345 519.927378,324.987304 C519.235795,326.106972 518.594444,326.854983 518.003308,327.231359 C517.405261,327.599713 516.751598,327.757454 516.042299,327.704587 C515.041814,327.630017 514.220556,327.215945 513.578499,326.462358 C512.936443,325.708772 512.654652,324.805617 512.733117,323.752868 C512.785428,323.051035 512.988429,322.392352 513.342128,321.776799 C513.695826,321.161246 514.157037,320.664454 514.725775,320.286408 L515.772259,321.355429 C514.809291,322.086989 514.294425,322.900735 514.227646,323.796691 C514.180901,324.423861 514.3427,324.972719 514.713047,325.443282 C515.083395,325.913844 515.541082,326.169434 516.086122,326.210058 C516.534101,326.243447 516.944394,326.127628 517.317013,325.862597 C517.682166,325.59701 518.164176,324.972261 518.763057,323.988331 C519.412301,322.933078 520.027914,322.228195 520.609914,321.873661 C521.191915,321.519127 521.837555,321.368296 522.546855,321.421162 C523.472677,321.490167 524.218183,321.862932 524.783397,322.539467 C525.34861,323.216002 525.59532,324.035834 525.523532,324.998988 C525.440058,326.118934 524.807264,327.205428 523.62513,328.258502 L523.62513,328.258502 Z M520.675117,343.058761 L520.041059,341.734975 C521.580317,340.819547 522.451781,339.435302 522.655476,337.582196 C522.818269,336.1012 522.477157,334.819042 521.63213,333.735683 C520.787104,332.652324 519.683647,332.035802 518.321726,331.886098 C517.436105,331.78875 516.577846,331.922252 515.746924,332.286609 C514.916002,332.650966 514.241575,333.201988 513.723623,333.939693 C513.205672,334.677397 512.893118,335.533699 512.785953,336.508626 C512.58962,338.294752 513.140003,339.831523 514.437117,341.118984 L513.485996,342.268526 C512.679068,341.592323 512.089389,340.738528 511.716942,339.707115 C511.344495,338.675703 511.226989,337.53487 511.364422,336.284582 C511.57548,334.364496 512.360791,332.838971 513.720379,331.707959 C515.079968,330.576947 516.634196,330.107569 518.383111,330.299812 C519.558977,330.429064 520.618585,330.844934 521.561967,331.547435 C522.505348,332.249935 523.202977,333.14949 523.654874,334.246127 C524.106772,335.342763 524.262365,336.531092 524.12166,337.811149 C524.03331,338.614906 523.825235,339.377245 523.497429,340.098189 C523.169622,340.819134 522.779875,341.418395 522.328175,341.895992 C521.876475,342.373588 521.325461,342.761174 520.675117,343.058761 L520.675117,343.058761 Z M522.337837,346.382146 L522.069575,347.965539 L520.309019,347.667261 C520.922869,348.257259 521.357017,348.843381 521.611476,349.425645 C521.865935,350.00791 521.945013,350.583233 521.848713,351.151634 C521.776176,351.579779 521.562075,352.014309 521.206405,352.455235 L520.036774,351.425567 C520.232057,351.124529 520.348457,350.863286 520.385976,350.641832 C520.473521,350.125104 520.345714,349.590883 520.002552,349.039152 C519.659389,348.487422 519.062477,348.010409 518.211799,347.608098 C517.557806,347.299861 516.186302,346.968781 514.097247,346.614848 L510.022501,345.924495 L510.290763,344.341102 L522.337837,346.382146 Z M525.713178,355.606389 C525.643568,355.958959 525.459243,356.235455 525.160198,356.435886 C524.861153,356.636316 524.53535,356.701724 524.182779,356.632114 C523.837554,356.563953 523.56473,356.380354 523.3643,356.081309 C523.16387,355.782264 523.098461,355.456461 523.168072,355.10389 C523.236232,354.758665 523.419832,354.485841 523.718877,354.285411 C524.017922,354.084981 524.340053,354.018847 524.685278,354.087007 C525.037849,354.156618 525.314345,354.340943 525.514775,354.639988 C525.715205,354.939033 525.781339,355.261163 525.713178,355.606389 L525.713178,355.606389 Z M520.929487,353.860601 L520.622767,355.414108 L508.635425,353.047361 L508.942145,351.493854 L520.929487,353.860601 Z M519.871662,358.829299 L519.541767,360.355078 L517.346402,359.880409 C518.049319,360.668171 518.52389,361.502301 518.77013,362.382824 C519.016369,363.263347 519.03427,364.190236 518.823832,365.16352 C518.456753,366.861277 517.531646,368.181747 516.048485,369.12497 C514.565323,370.068193 512.96391,370.353887 511.244199,369.982061 C509.487899,369.602324 508.126241,368.681716 507.159186,367.220212 C506.19213,365.758707 505.891356,364.182759 506.256853,362.492319 C506.462544,361.54099 506.849199,360.709231 507.416831,359.997019 C507.984462,359.284807 508.729394,358.691371 509.651649,358.216694 L503.230207,356.828286 L503.560102,355.302508 L519.871662,358.829299 Z M517.368068,364.722373 C517.656035,363.390512 517.433829,362.168587 516.701442,361.056561 C515.969055,359.944536 514.911334,359.239013 513.528247,358.93997 C512.620825,358.743772 511.760983,358.770424 510.948695,359.019927 C510.136407,359.26943 509.436172,359.726992 508.847971,360.392627 C508.25977,361.058262 507.874697,361.811848 507.69274,362.653409 C507.513947,363.480334 507.559882,364.304131 507.830548,365.124825 C508.101213,365.945519 508.574054,366.654801 509.249083,367.252693 C509.924113,367.850585 510.682396,368.240504 511.523957,368.422462 C512.372836,368.606002 513.224074,368.565999 514.077699,368.302454 C514.931324,368.038908 515.646836,367.590395 516.224258,366.956899 C516.80168,366.323404 517.182946,365.578569 517.368068,364.722373 L517.368068,364.722373 Z M519.805828,377.275528 L519.377045,378.799865 L515.009439,377.571297 L514.334335,379.971318 L513.037026,379.606396 L513.712131,377.206375 L503.247174,374.262676 L503.675957,372.738339 L514.140913,375.682038 L514.721747,373.617155 L516.019055,373.982076 L515.438222,376.046959 L519.805828,377.275528 Z M518.058872,384.584097 C517.95108,384.926927 517.737591,385.18158 517.4184,385.348065 C517.099209,385.51455 516.768204,385.543896 516.425373,385.436103 C516.089686,385.330556 515.838603,385.11819 515.672118,384.798999 C515.505634,384.479808 515.476288,384.148803 515.584081,383.805972 C515.689628,383.470285 515.901993,383.219202 516.221184,383.052717 C516.540375,382.886233 516.86781,382.855764 517.203498,382.961311 C517.546328,383.069104 517.800981,383.282592 517.967466,383.601783 C518.133951,383.920974 518.164419,384.248409 518.058872,384.584097 L518.058872,384.584097 Z M513.495071,382.32507 L513.020112,383.835658 L501.36395,380.170726 L501.838908,378.660139 L513.495071,382.32507 Z M510.373318,392.70817 C509.777641,394.490505 508.637844,395.751518 506.953894,396.491246 C505.419156,397.162433 503.845855,397.228665 502.233943,396.689945 C500.61493,396.148852 499.388165,395.113255 498.55361,393.583124 C497.719056,392.052993 497.597246,390.403885 498.188176,388.635753 C498.78148,386.860519 499.871548,385.612489 501.458412,384.891624 C503.045276,384.170759 504.64819,384.080875 506.267203,384.621968 C507.872014,385.158315 509.085788,386.15602 509.908561,387.615114 C510.816451,389.221066 510.971369,390.918735 510.373318,392.70817 L510.373318,392.70817 Z M508.914084,392.220477 C509.327023,390.984914 509.22381,389.770271 508.604442,388.576509 C507.985073,387.382747 507.025668,386.56873 505.726197,386.134431 C504.888287,385.854392 504.03956,385.795716 503.179991,385.958401 C502.320423,386.121086 501.578498,386.480962 500.954194,387.038039 C500.32989,387.595116 499.880099,388.285499 499.604806,389.109207 C499.329513,389.932915 499.273817,390.755009 499.437717,391.575513 C499.601617,392.396017 499.978072,393.129669 500.567094,393.77649 C501.156116,394.423311 501.869571,394.886735 502.707482,395.166774 C504.006953,395.601073 505.263599,395.525712 506.477458,394.940689 C507.691317,394.355667 508.503517,393.448939 508.914084,392.220477 L508.914084,392.220477 Z M506.378351,401.889978 L505.793595,403.349457 L503.760749,402.534976 C504.305239,403.430642 504.628326,404.31018 504.730022,405.173617 C504.831718,406.037054 504.715493,406.885756 504.381345,407.719748 C504.041628,408.56764 503.524759,409.233639 502.830721,409.717765 C502.136684,410.201891 501.362152,410.454134 500.507103,410.474502 C499.652055,410.494869 498.453105,410.195971 496.91022,409.577797 L491.072303,407.238773 L491.652882,405.789719 L497.06338,407.957493 C498.369968,408.480991 499.264448,408.77485 499.746847,408.839079 C500.567054,408.966064 501.262601,408.865664 501.833507,408.537878 C502.404414,408.210091 502.844404,407.660484 503.153491,406.889041 C503.507131,406.0064 503.531977,405.098906 503.228032,404.166534 C502.924086,403.234162 502.385778,402.484145 501.613092,401.916461 C501.105839,401.551912 500.105109,401.070304 498.610872,400.471623 L494.451357,398.805068 L495.036113,397.345589 L506.378351,401.889978 Z" id="Developper-vos-relat" fill="#FFFFFF"></path>
            </g>
        </g>
    </g>
</svg>