<?xml version="1.0" encoding="UTF-8" standalone="no"?>
<svg width="520px" height="185px" viewBox="0 0 520 185" version="1.1" xmlns="http://www.w3.org/2000/svg" xmlns:xlink="http://www.w3.org/1999/xlink">
    <!-- Generator: Sketch 3.6.1 (26313) - http://www.bohemiancoding.com/sketch -->
    <title>valoriser</title>
    <desc>Created with Sketch.</desc>
    <defs></defs>
    <g id="Page-1" stroke="none" stroke-width="1" fill="none" fill-rule="evenodd">
        <g id="thema-circle" transform="translate(-41.000000, -415.000000)">
            <g id="valoriser" transform="translate(41.000000, 64.000000)">
                <path d="M519.81,386 C466.22,478.82 367.18,536 260,536 C152.82,536 53.78,478.82 0.19,386 L60.81,351 C101.9,422.16 177.83,466 260,466 C342.17,466 418.1,422.16 459.19,351 L519.81,386 Z" id="Segment-2" stroke="#FFFFFF" stroke-width="0.25" fill="#0288D1"></path>
                <path d="M4.5,257 C4.5,398.661038 119.338962,513.5 261,513.5 C402.661038,513.5 517.5,398.661038 517.5,257 C517.5,115.338962 402.661038,0.5 261,0.5 C119.338962,0.5 4.5,115.338962 4.5,257 L4.5,257 Z" id="Oval-1-Copy-2"></path>
                <path d="M71.4852503,398.322169 L72.7876278,400.079715 L64.2621763,414.684267 L80.78911,410.87764 L82.0914876,412.635187 L60.7235362,417.578735 L60.4630607,417.227226 L71.4852503,398.322169 Z M89.4234935,427.967106 L78.182016,437.708502 L76.9464345,436.282653 L78.8785634,434.60835 C77.6162526,434.640875 76.472329,434.441175 75.4467585,434.009245 C74.421188,433.577315 73.5204298,432.913627 72.7444568,432.018162 C71.3656125,430.426989 70.7651181,428.568415 70.9429554,426.442383 C71.1207928,424.316352 72.0362811,422.537081 73.6894478,421.104515 C75.3081736,419.701795 77.1851169,419.070307 79.3203342,419.210032 C81.4555515,419.349757 83.2155404,420.218637 84.6003537,421.816699 C85.4002028,422.739717 85.9276253,423.745012 86.1826372,424.832616 C86.4376491,425.920219 86.4172582,427.086654 86.1214639,428.331954 L88.187912,426.541256 L89.4234935,427.967106 Z M83.3039896,423.139074 C82.605614,422.333156 81.7629365,421.760848 80.7759321,421.422136 C79.7889276,421.083424 78.7626607,421.022978 77.6971007,421.240797 C76.6315406,421.458616 75.6992592,421.913722 74.9002286,422.606128 C74.1080863,423.292566 73.5264797,424.152347 73.1553917,425.185498 C72.7843036,426.218649 72.6942401,427.252491 72.8851985,428.287054 C73.0761568,429.321617 73.5118638,430.231512 74.1923324,431.016766 C74.87877,431.808909 75.7291384,432.386612 76.7434631,432.749892 C77.7577877,433.113173 78.7715409,433.190493 79.7847529,432.981855 C80.797965,432.773216 81.731625,432.298825 82.5857612,431.558666 C83.88763,430.43052 84.6043823,429.058645 84.7360397,427.442999 C84.8676971,425.827353 84.3903518,424.392726 83.3039896,423.139074 L83.3039896,423.139074 Z M95.9684871,425.548884 L97.3255844,426.898671 L82.7864605,441.516546 L81.4293633,440.16676 L95.9684871,425.548884 Z M101.308857,438.057019 C102.965621,439.634687 103.766561,441.542708 103.711702,443.781138 C103.658402,445.819675 102.918356,447.588091 101.491541,449.086439 C100.05844,450.591388 98.2829736,451.408427 96.1650878,451.537582 C94.0472021,451.666736 92.1665064,450.948776 90.5229443,449.383679 C88.8727816,447.812297 88.0604522,445.9658 88.0859316,443.844133 C88.1114111,441.722466 88.8406901,439.909185 90.2737906,438.404237 C91.6943201,436.91249 93.4213066,436.090189 95.4548019,435.93731 C97.694161,435.766504 99.6454933,436.473066 101.308857,438.057019 L101.308857,438.057019 Z M100.017188,439.413446 C98.8686744,438.319764 97.4764814,437.805827 95.8405669,437.87162 C94.2046524,437.937413 92.8115901,438.57426 91.6613384,439.782179 C90.919646,440.561056 90.416364,441.466251 90.1514772,442.497793 C89.8865904,443.529334 89.8998549,444.533106 90.1912712,445.509138 C90.4826875,446.485171 91.0112255,447.337735 91.776901,448.066856 C92.5425765,448.795978 93.419956,449.282211 94.409066,449.525571 C95.398176,449.768931 96.4013964,449.733116 97.4187574,449.418125 C98.4361184,449.103134 99.3156319,448.556208 100.057324,447.777331 C101.207576,446.569412 101.773919,445.145315 101.756371,443.504997 C101.738822,441.864679 101.1591,440.500843 100.017188,439.413446 L100.017188,439.413446 Z M108.413918,444.365893 L109.921927,445.610176 L108.538424,447.286913 C109.533651,446.997314 110.4157,446.894991 111.184598,446.979941 C111.953496,447.064891 112.608605,447.330696 113.149944,447.777364 C113.557706,448.113815 113.886268,448.603524 114.135641,449.246506 L112.339067,449.855684 C112.139947,449.466868 111.934934,449.185451 111.724023,449.011424 C111.231897,448.605363 110.59058,448.415929 109.800055,448.443119 C109.00953,448.470308 108.14381,448.810621 107.202871,449.464067 C106.480599,449.967069 105.298656,451.21335 103.657006,453.202948 L100.454936,457.083698 L98.9469268,455.839415 L108.413918,444.365893 Z M119.492317,445.283364 C119.838695,445.550629 120.0399,445.901588 120.095938,446.336252 C120.151977,446.770915 120.046365,447.16143 119.7791,447.507808 C119.517403,447.84697 119.169228,448.044567 118.734565,448.100605 C118.299901,448.156644 117.909386,448.051032 117.563008,447.783767 C117.223846,447.52207 117.026249,447.173895 116.970211,446.739232 C116.914173,446.304568 117.017,445.917661 117.278697,445.578499 C117.545962,445.232122 117.896921,445.030916 118.331585,444.974878 C118.766248,444.91884 119.153155,445.021667 119.492317,445.283364 L119.492317,445.283364 Z M114.992929,449.547992 L116.519149,450.725622 L107.432189,462.502411 L105.905969,461.324782 L114.992929,449.547992 Z M124.513085,458.611811 L122.768125,458.904799 C122.536209,457.499325 122.027806,456.507179 121.2429,455.92833 C120.744082,455.560464 120.195073,455.410396 119.595857,455.478122 C118.996641,455.545847 118.534746,455.799773 118.210158,456.239907 C117.923439,456.628693 117.796958,457.107328 117.83071,457.675827 C117.859053,458.251661 118.164173,459.127866 118.746079,460.304468 C119.452234,461.742577 119.807835,462.888172 119.812892,463.741289 C119.805204,464.596331 119.544399,465.37228 119.030468,466.069159 C118.305556,467.052125 117.346786,467.630443 116.154132,467.80413 C114.961477,467.977817 113.848009,467.683274 112.813694,466.920493 C112.124151,466.411972 111.576692,465.776074 111.171303,465.012778 C110.765913,464.249482 110.552578,463.452291 110.531292,462.621182 L112.311047,462.234941 C112.441368,463.701393 112.946655,464.759191 113.826923,465.408367 C114.443111,465.862789 115.113658,466.051527 115.838586,465.974584 C116.563514,465.897641 117.123426,465.591426 117.518342,465.05593 C117.842929,464.615795 117.989308,464.117859 117.957481,463.562105 C117.920244,463.013687 117.588487,462.112175 116.9622,460.857544 C116.295016,459.5048 115.967199,458.41367 115.978738,457.584118 C115.990278,456.754567 116.253009,455.991363 116.76694,455.294484 C117.437755,454.384874 118.304878,453.857882 119.368337,453.713493 C120.431796,453.569104 121.436655,453.845837 122.382943,454.543701 C123.483278,455.35517 124.193318,456.711193 124.513085,458.611811 L124.513085,458.611811 Z M132.699686,473.929746 L133.563471,475.534449 C132.544274,476.100461 131.569173,476.454346 130.638138,476.596117 C129.707104,476.737888 128.789635,476.704667 127.885704,476.496454 C126.981773,476.288241 126.076379,475.878421 125.169493,475.26698 C123.15923,473.911619 122.031881,472.192433 121.787411,470.10937 C121.542941,468.026306 121.981187,466.153491 123.102161,464.490868 C124.156897,462.92649 125.576859,461.855724 127.362091,461.278537 C129.628469,460.542066 131.781872,460.861697 133.822364,462.237439 C135.923316,463.653943 137.063478,465.582383 137.242886,468.022817 C137.375451,469.750116 136.881168,471.461483 135.760022,473.15697 L124.673403,465.682144 C123.735518,467.138427 123.399146,468.623734 123.664275,470.138111 C123.929405,471.652487 124.711892,472.847856 126.011761,473.724255 C126.639024,474.147168 127.323154,474.44903 128.064173,474.62985 C128.805192,474.81067 129.505807,474.859825 130.16604,474.777314 C130.826272,474.694804 131.670812,474.412284 132.699686,473.929746 L132.699686,473.929746 Z M134.939076,470.608295 C135.298148,469.619199 135.446215,468.735191 135.383283,467.956246 C135.320351,467.177301 135.060819,466.408719 134.604678,465.650477 C134.148538,464.892234 133.553944,464.265998 132.820878,463.771751 C131.611698,462.956496 130.310168,462.645097 128.916249,462.837543 C127.899279,462.976337 126.846175,463.502981 125.756907,464.417488 L134.939076,470.608295 Z M141.881709,467.278494 L143.5762,468.253702 L142.491877,470.137786 C143.424828,469.686181 144.277437,469.438112 145.04973,469.393571 C145.822024,469.34903 146.512301,469.501795 147.120582,469.851872 C147.578769,470.115566 147.984439,470.543585 148.337604,471.135942 L146.667867,472.036359 C146.40666,471.68622 146.157564,471.442957 145.920571,471.306564 C145.367587,470.988313 144.703653,470.908547 143.928748,471.067264 C143.153842,471.225981 142.357045,471.705978 141.538333,472.50727 C140.910119,473.123741 139.952704,474.549771 138.666059,476.785404 L136.156432,481.146052 L134.461941,480.170843 L141.881709,467.278494 Z M154.743525,474.072899 L156.569775,474.975466 L156.23368,486.887708 L165.455889,479.367151 L167.294395,480.275775 L154.599999,490.594441 L154.293581,490.443004 L154.743525,474.072899 Z M175.981119,483.026303 C178.08987,483.913473 179.515696,485.413162 180.25864,487.525416 C180.932116,489.450229 180.867684,491.366166 180.065343,493.273283 C179.259468,495.188801 177.889421,496.582647 175.95516,497.45486 C174.020899,498.327073 172.007825,498.32313 169.915877,497.443029 C167.815528,496.559394 166.400883,495.121266 165.671901,493.128603 C164.942919,491.13594 164.981365,489.181879 165.78724,487.26636 C166.586046,485.367644 167.908901,483.986082 169.755845,483.121631 C171.788896,482.167374 173.863967,482.135599 175.981119,483.026303 L175.981119,483.026303 Z M175.254775,484.752782 C173.792931,484.137772 172.308967,484.151248 170.802836,484.79321 C169.296706,485.435173 168.220246,486.524866 167.573425,488.062321 C167.156349,489.053686 167.006992,490.078559 167.125348,491.13697 C167.243705,492.195382 167.612262,493.129138 168.23103,493.938266 C168.849799,494.747394 169.646452,495.356952 170.621014,495.766959 C171.595576,496.176966 172.588394,496.320253 173.599496,496.196826 C174.610599,496.073399 175.535838,495.683955 176.375241,495.028481 C177.214644,494.373007 177.842874,493.5496 178.259949,492.558235 C178.90677,491.02078 178.930971,489.488392 178.332551,487.961027 C177.734132,486.433662 176.708216,485.364257 175.254775,484.752782 L175.254775,484.752782 Z M192.106098,490.561414 L190.533069,491.37154 C189.884432,490.103307 189.098208,489.31294 188.174374,489.000414 C187.587264,488.8018 187.018626,488.825927 186.468443,489.072797 C185.918259,489.319666 185.555549,489.702114 185.380301,490.220152 C185.225498,490.677752 185.250677,491.172176 185.455837,491.703439 C185.658076,492.243335 186.215375,492.985125 187.12775,493.928829 C188.238063,495.083825 188.925431,496.066865 189.189873,496.877978 C189.44276,497.694803 189.430466,498.513317 189.152989,499.333544 C188.761602,500.490495 188.024306,501.33316 186.941078,501.861564 C185.857851,502.389967 184.70756,502.448251 183.49017,502.036418 C182.678577,501.761863 181.963566,501.322731 181.345115,500.71901 C180.726664,500.115289 180.280843,499.420833 180.007638,498.635623 L181.585434,497.726078 C182.155852,499.083314 182.959086,499.937167 183.995162,500.287663 C184.720415,500.533011 185.416595,500.508731 186.083722,500.214825 C186.75085,499.920918 187.191016,499.458832 187.404235,498.828552 C187.579483,498.310514 187.567384,497.791649 187.367937,497.271941 C187.165569,496.760867 186.575195,496.003078 185.596798,494.998551 C184.549586,493.913011 183.905259,492.973398 183.663798,492.179682 C183.422337,491.385966 183.440345,490.579006 183.717821,489.75878 C184.080001,488.688168 184.745618,487.922285 185.714694,487.461107 C186.68377,486.99993 187.725183,486.957733 188.838965,487.334517 C190.13406,487.772637 191.223094,488.848259 192.106098,490.561414 L192.106098,490.561414 Z M202.360908,491.473708 L204.200758,491.949564 L203.557154,494.437994 C204.438683,493.686878 205.273945,493.187414 206.062963,492.939586 C207.144402,492.616756 208.201324,492.588856 209.233763,492.855885 C209.93088,493.036186 210.557314,493.34413 211.113086,493.779725 C211.668857,494.21532 212.086514,494.711686 212.366067,495.268839 C212.645621,495.825991 212.821445,496.565779 212.893545,497.488224 C213.803377,496.518479 214.797439,495.86003 215.875759,495.512858 C216.954079,495.165685 218.02709,495.130179 219.094826,495.406336 C220.091968,495.664235 220.90713,496.143379 221.540338,496.84378 C222.173546,497.544181 222.559056,498.392335 222.696881,499.388266 C222.834706,500.384197 222.670827,501.782216 222.205239,503.582366 L220.171725,511.444743 L218.27893,510.955194 L220.312444,503.092816 C220.711846,501.54857 220.875986,500.45894 220.80487,499.823894 C220.733754,499.188847 220.476911,498.625808 220.034335,498.134759 C219.591759,497.643709 218.999861,497.302333 218.258623,497.110621 C217.358548,496.877827 216.467231,496.92973 215.584643,497.266331 C214.702055,497.602933 213.974584,498.167934 213.402209,498.961351 C212.829833,499.754767 212.276625,501.183893 211.742568,503.24877 L210.284189,508.887445 L208.44434,508.411589 L210.351187,501.038955 C210.800799,499.300576 210.997956,498.092391 210.942663,497.414364 C210.887371,496.736338 210.639087,496.140208 210.197805,495.625957 C209.756522,495.111705 209.165271,494.758729 208.424033,494.567016 C207.568079,494.345633 206.700534,494.396624 205.821369,494.71999 C204.942205,495.043355 204.210969,495.595614 203.627639,496.376783 C203.044309,497.157952 202.519858,498.448592 202.05427,500.248741 L200.476071,506.350687 L198.636222,505.874831 L202.360908,491.473708 Z M241.298287,498.429606 L239.073194,513.137243 L237.207703,512.855016 L237.590141,510.327141 C236.651192,511.171452 235.651509,511.762277 234.591062,512.099635 C233.530614,512.436992 232.414623,512.517047 231.243052,512.339803 C229.161263,512.024852 227.497842,511.001171 226.25274,509.268729 C225.007639,507.536286 224.548706,505.588645 224.875927,503.425746 C225.196331,501.307908 226.21386,499.608988 227.928544,498.328936 C229.643228,497.048884 231.545943,496.567022 233.636745,496.883335 C234.844363,497.066034 235.898204,497.488187 236.7983,498.149806 C237.698395,498.811426 238.440212,499.711811 239.023772,500.850989 L239.432797,498.147379 L241.298287,498.429606 Z M233.509352,498.730768 C232.454939,498.571248 231.442451,498.683094 230.471859,499.06631 C229.501266,499.449525 228.681481,500.069872 228.012479,500.927368 C227.343476,501.784864 226.929903,502.736298 226.771746,503.781699 C226.614953,504.818088 226.730831,505.849622 227.119384,506.876332 C227.507937,507.903042 228.110676,508.747818 228.927617,509.410685 C229.744559,510.073552 230.666704,510.482694 231.694081,510.638124 C232.73047,510.794918 233.75231,510.682182 234.759633,510.299914 C235.766955,509.917646 236.588178,509.318258 237.223327,508.501732 C237.858477,507.685207 238.260577,506.718209 238.429642,505.600712 C238.687328,503.897429 238.341752,502.38867 237.392903,501.074391 C236.444054,499.760111 235.14955,498.978911 233.509352,498.730768 L233.509352,498.730768 Z M243.845468,498.03015 L245.79494,498.178096 L245.630441,500.345691 C246.276939,499.535515 246.938856,498.943613 247.616212,498.569969 C248.293567,498.196324 248.982141,498.036059 249.681955,498.089168 C250.209088,498.129172 250.759807,498.340069 251.334127,498.721865 L250.216861,500.254996 C249.830072,500.051967 249.500355,499.940108 249.227701,499.919416 C248.591506,499.871135 247.958212,500.08587 247.327801,500.563626 C246.69739,501.041382 246.185959,501.818377 245.793493,502.894635 C245.493048,503.721932 245.245232,505.421577 245.05004,507.993621 L244.669313,513.010445 L242.719841,512.862499 L243.845468,498.03015 Z M267.290106,499.127564 L266.41207,519.424988 L264.527114,519.343448 L264.872774,511.352874 C264.029287,512.292563 263.098362,512.986696 262.079971,513.435292 C261.06158,513.883888 259.960504,514.082579 258.77671,514.031369 C256.673197,513.940375 254.910034,513.10005 253.487165,511.510371 C252.064297,509.920692 251.400143,508.033147 251.494683,505.84768 C251.587253,503.707743 252.417672,501.90994 253.985965,500.454215 C255.554257,498.998491 257.394685,498.316333 259.507303,498.407721 C260.727522,498.460506 261.820396,498.767788 262.785956,499.329577 C263.751516,499.891365 264.58518,500.707446 265.286975,501.777844 L265.40515,499.046024 L267.290106,499.127564 Z M259.577786,500.2582 C258.512371,500.212111 257.5176,500.431366 256.593445,500.91597 C255.669289,501.400573 254.920386,502.104861 254.346711,503.028852 C253.773036,503.952844 253.463356,504.942979 253.417661,505.999288 C253.372361,507.046491 253.597657,508.059769 254.093557,509.039152 C254.589456,510.018535 255.278902,510.794166 256.161917,511.366068 C257.044931,511.93797 258.005472,512.24637 259.043569,512.291277 C260.090772,512.336577 261.094746,512.11544 262.055523,511.627859 C263.0163,511.140278 263.76887,510.456676 264.313257,509.577033 C264.857644,508.69739 265.154256,507.693005 265.203102,506.563847 C265.277552,504.842792 264.772943,503.379527 263.689259,502.174008 C262.605576,500.968489 261.235098,500.329892 259.577786,500.2582 L259.577786,500.2582 Z M270.247136,498.458771 L272.17401,498.401178 L272.381506,505.34339 C272.432155,507.037955 272.558114,508.201366 272.759387,508.833659 C273.059934,509.736546 273.603017,510.44068 274.388654,510.946083 C275.17429,511.451485 276.100062,511.688253 277.165997,511.656394 C278.231933,511.624534 279.12845,511.340138 279.855575,510.803199 C280.582701,510.266259 281.074943,509.574493 281.332319,508.72788 C281.506485,508.148197 281.565792,506.929096 281.510242,505.070542 L281.302746,498.128329 L283.256952,498.06992 L283.475067,505.367442 C283.536336,507.417318 283.343343,508.968683 282.896081,510.021583 C282.448819,511.074483 281.753399,511.9091 280.809799,512.52546 C279.866198,513.141819 278.670126,513.471642 277.221547,513.514939 C275.772968,513.558235 274.554778,513.300572 273.566939,512.741941 C272.579101,512.183311 271.830315,511.385021 271.320559,510.347047 C270.810804,509.309073 270.524343,507.733285 270.461168,505.619635 L270.247136,498.458771 Z M299.915165,506.004255 L301.602016,506.693987 C301.175003,507.778787 300.647194,508.671801 300.018572,509.373056 C299.38995,510.074312 298.660568,510.631854 297.830402,511.045701 C297.000237,511.459548 296.04079,511.718689 294.952033,511.823131 C292.53862,512.054644 290.575532,511.444069 289.062709,509.991387 C287.549886,508.538704 286.697749,506.814361 286.506271,504.818306 C286.326109,502.940199 286.741657,501.210993 287.752929,499.630636 C289.034386,497.621476 290.899939,496.499416 293.349643,496.264421 C295.871932,496.022463 297.977923,496.786433 299.667682,498.556354 C300.867976,499.805526 301.574229,501.440855 301.786463,503.462389 L288.476469,504.739187 C288.678128,506.459571 289.36259,507.820011 290.529876,508.820547 C291.697162,509.821083 293.061061,510.246494 294.621613,510.096794 C295.374671,510.024555 296.094683,509.822719 296.781672,509.49128 C297.46866,509.159841 298.040765,508.752442 298.498002,508.269069 C298.955239,507.785697 299.427622,507.030767 299.915165,506.004255 L299.915165,506.004255 Z M299.532648,502.016701 C299.181125,501.024897 298.733511,500.248344 298.189793,499.687018 C297.646076,499.125692 296.957174,498.697335 296.123067,498.401934 C295.288961,498.106533 294.431881,498.001046 293.551802,498.08547 C292.100125,498.224726 290.897432,498.811649 289.943685,499.846256 C289.246831,500.599839 288.768619,501.6758 288.509033,503.074172 L299.532648,502.016701 Z M311.116485,495.281191 L310.113838,496.739075 C308.942419,495.92857 307.87584,495.604165 306.914071,495.765851 C306.302853,495.868604 305.81328,496.158862 305.445336,496.636632 C305.077393,497.114401 304.938756,497.622934 305.029421,498.162243 C305.109508,498.638634 305.365584,499.062325 305.797655,499.43333 C306.231238,499.813323 307.073147,500.203225 308.323406,500.603047 C309.848009,501.095387 310.918638,501.636307 311.535325,502.225824 C312.144535,502.82584 312.52091,503.552791 312.664463,504.406698 C312.866948,505.611157 312.616,506.702356 311.911612,507.680328 C311.207223,508.6583 310.221355,509.253808 308.953977,509.466871 C308.109058,509.608912 307.271376,509.560268 306.440905,509.320937 C305.610434,509.081606 304.889132,508.680671 304.276979,508.11812 L305.236793,506.57039 C306.381403,507.496313 307.493002,507.868604 308.571621,507.687274 C309.326655,507.560343 309.928525,507.209617 310.377248,506.635084 C310.825971,506.060551 310.995175,505.445214 310.884866,504.789054 C310.794201,504.249744 310.538087,503.798332 310.116514,503.434805 C309.696453,503.080266 308.817836,502.691914 307.480636,502.269737 C306.044485,501.808741 305.032319,501.285719 304.444108,500.700658 C303.855898,500.115596 303.490022,499.396122 303.346469,498.542215 C303.159095,497.427641 303.383215,496.437998 304.018834,495.573255 C304.654453,494.708511 305.552008,494.178683 306.711524,493.983754 C308.059799,493.757091 309.528104,494.189566 311.116485,495.281191 L311.116485,495.281191 Z M335.13755,497.913084 L336.905883,498.35376 C336.638864,499.488587 336.244586,500.448067 335.723035,501.232228 C335.201485,502.01639 334.559604,502.672775 333.797374,503.201405 C333.035144,503.730035 332.122781,504.124098 331.060258,504.383608 C328.704998,504.958855 326.674636,504.636135 324.969112,503.415436 C323.263587,502.194738 322.172957,500.610433 321.697188,498.662473 C321.249534,496.829621 321.412787,495.058694 322.186952,493.34964 C323.167012,491.177465 324.852355,489.79945 327.243032,489.215553 C329.704545,488.614355 331.898332,489.06839 333.824461,490.577671 C335.1915,491.641786 336.124988,493.158919 336.624953,495.129116 L323.635672,498.30161 C324.08198,499.975288 324.954478,501.223499 326.253192,502.046282 C327.551906,502.869064 328.962717,503.09447 330.485667,502.722506 C331.220578,502.543012 331.9042,502.239999 332.536553,501.81346 C333.168905,501.386921 333.676667,500.901683 334.059852,500.357732 C334.443038,499.81378 334.802267,498.998906 335.13755,497.913084 L335.13755,497.913084 Z M334.187099,494.021612 C333.696968,493.090476 333.14261,492.386147 332.524008,491.908603 C331.905407,491.431059 331.162193,491.105931 330.294343,490.933209 C329.426494,490.760488 328.563145,490.779012 327.704272,490.988783 C326.287575,491.334796 325.18149,492.088139 324.385984,493.248836 C323.804412,494.09457 323.485455,495.227992 323.429105,496.649137 L334.187099,494.021612 Z M336.952222,480.657613 L338.78746,480.067645 L340.477863,485.326058 L343.367386,484.397173 L343.869486,485.959078 L340.979962,486.887963 L345.030233,499.487327 L343.194995,500.077294 L339.144724,487.47793 L336.658693,488.277105 L336.156593,486.7152 L338.642625,485.916025 L336.952222,480.657613 Z M359.833556,479.548018 L359.160469,481.18438 C357.844615,480.638787 356.733636,480.546309 355.827497,480.90694 C355.251633,481.136127 354.834178,481.522989 354.575119,482.067539 C354.31606,482.61209 354.287643,483.138414 354.489866,483.646529 C354.668497,484.095364 355.008068,484.455615 355.50859,484.727291 C356.012483,485.007437 356.917628,485.211264 358.224052,485.338781 C359.818153,485.498956 360.978696,485.80224 361.705716,486.248642 C362.427638,486.706883 362.948684,487.338252 363.268871,488.142768 C363.720503,489.277558 363.705019,490.397134 363.222418,491.501529 C362.739818,492.605924 361.901494,493.395722 360.707424,493.870947 C359.911377,494.187763 359.082241,494.316648 358.219991,494.257604 C357.357741,494.19856 356.568173,493.958544 355.851265,493.537548 L356.463556,491.822377 C357.777512,492.486444 358.942588,492.616253 359.958818,492.211806 C360.670179,491.928693 361.184675,491.459066 361.50232,490.802909 C361.819966,490.146753 361.855769,489.509581 361.60973,488.891374 C361.407507,488.383259 361.062059,487.995918 360.573376,487.729339 C360.088063,487.47123 359.147359,487.276649 357.751236,487.145591 C356.250204,486.997426 355.150583,486.699325 354.452339,486.251281 C353.754095,485.803236 353.244888,485.176965 352.924701,484.372449 C352.506772,483.322345 352.51742,482.307697 352.956644,481.328475 C353.395867,480.349253 354.161691,479.642263 355.254139,479.207483 C356.524426,478.701924 358.050884,478.815435 359.833556,479.548018 L359.833556,479.548018 Z M375.190091,470.673686 L381.274151,484.247553 L379.552466,485.019244 L378.506768,482.686236 C378.173736,483.904257 377.652508,484.941929 376.943069,485.799282 C376.23363,486.656635 375.338295,487.327621 374.257038,487.812261 C372.335727,488.673428 370.382937,488.712196 368.398609,487.928565 C366.414281,487.144934 364.974779,485.755057 364.08006,483.75889 C363.203981,481.80431 363.140837,479.82499 363.890626,477.820871 C364.640415,475.816753 365.980104,474.382267 367.909732,473.517372 C369.024258,473.01782 370.138969,472.802849 371.253899,472.872451 C372.368829,472.942053 373.479784,473.29809 374.586799,473.940574 L373.468406,471.445378 L375.190091,470.673686 Z M368.801883,475.140118 C367.828752,475.576293 367.037669,476.218031 366.42861,477.065351 C365.819551,477.912671 365.465599,478.877863 365.366745,479.960957 C365.267891,481.04405 365.434686,482.067989 365.867133,483.032802 C366.295853,483.989299 366.951285,484.794221 367.833449,485.447592 C368.715613,486.100963 369.679513,486.485458 370.725178,486.601088 C371.770843,486.716718 372.767751,486.562039 373.71593,486.137048 C374.672426,485.708328 375.470895,485.060783 376.111359,484.194392 C376.751824,483.328002 377.118321,482.379659 377.210863,481.349337 C377.303405,480.319014 377.118543,479.288192 376.656272,478.256839 C375.95168,476.684858 374.844918,475.602799 373.335951,475.010629 C371.826984,474.41846 370.315643,474.461622 368.801883,475.140118 L368.801883,475.140118 Z M376.508842,469.283732 L378.300214,468.313784 L387.832152,475.466171 L387.016623,463.594236 L388.820018,462.617778 L389.915323,478.940244 L389.614757,479.102987 L376.508842,469.283732 Z M396.096,457.108435 C398.038165,455.899347 400.085933,455.60153 402.239364,456.214975 C404.199657,456.776873 405.726519,457.936035 406.819997,459.692495 C407.918291,461.456693 408.264876,463.380157 407.859762,465.462944 C407.454647,467.545732 406.288762,469.186828 404.362072,470.386281 C402.427644,471.590552 400.43659,471.914796 398.38885,471.359024 C396.341111,470.803252 394.768117,469.643284 393.669822,467.879086 C392.581161,466.130363 392.217347,464.252519 392.578368,462.245496 C392.973564,460.034676 394.146096,458.32234 396.096,457.108435 L396.096,457.108435 Z M397.085905,458.698527 C395.739543,459.536699 394.89347,460.755917 394.54766,462.356217 C394.20185,463.956517 394.469703,465.464645 395.35123,466.880646 C395.919645,467.793696 396.670038,468.507547 397.60243,469.02222 C398.534822,469.536893 399.509956,469.775318 400.527862,469.737504 C401.545768,469.69969 402.503494,469.401397 403.401069,468.842615 C404.298643,468.283834 404.989025,467.556104 405.472235,466.659404 C405.955445,465.762704 406.1719,464.782459 406.121607,463.718638 C406.071315,462.654818 405.761965,461.666398 405.193549,460.753348 C404.312023,459.337347 403.075035,458.432549 401.482549,458.038928 C399.890062,457.645308 398.424529,457.865171 397.085905,458.698527 L397.085905,458.698527 Z M401.505087,446.03405 C401.859069,445.776941 402.252482,445.682697 402.685338,445.751315 C403.118194,445.819934 403.463171,446.031231 403.72028,446.385213 C403.972033,446.73182 404.063599,447.121546 403.99498,447.554402 C403.926362,447.987258 403.715065,448.332235 403.361083,448.589344 C403.014476,448.841096 402.62475,448.932662 402.191894,448.864044 C401.759038,448.795425 401.416739,448.587816 401.164986,448.241208 C400.907878,447.887226 400.813634,447.493813 400.882252,447.060957 C400.95087,446.628101 401.15848,446.285802 401.505087,446.03405 L401.505087,446.03405 Z M404.330262,451.552194 L405.889987,450.419314 L414.631646,462.454638 L413.071921,463.587518 L404.330262,451.552194 Z M408.193464,448.637414 L409.749945,447.454326 L411.065406,449.184959 C411.011348,448.149863 411.11368,447.267815 411.372407,446.538788 C411.631134,445.80976 412.039861,445.232905 412.5986,444.808205 C413.019469,444.4883 413.571393,444.28058 414.25439,444.185036 L414.436077,446.073359 C414.012001,446.178174 413.691122,446.313314 413.473432,446.478781 C412.965486,446.864872 412.63426,447.445786 412.479743,448.22154 C412.325226,448.997294 412.458301,449.917932 412.878971,450.983481 C413.203255,451.801728 414.145839,453.237605 415.706751,455.291154 L418.75134,459.296644 L417.194859,460.479732 L408.193464,448.637414 Z M418.08154,449.058126 L423.916262,444.314775 L424.968423,445.609022 L419.133702,450.352373 L418.08154,449.058126 Z M422.444505,429.175841 L423.677719,430.585624 C422.951441,430.821317 422.399652,431.104188 422.022336,431.434247 C421.741064,431.680291 421.557325,431.940921 421.471115,432.216145 C421.384905,432.491368 421.3823,432.723729 421.463301,432.913232 C421.544302,433.102736 421.863847,433.516485 422.421947,434.154493 L423.745176,435.66718 L426.081094,433.623826 L427.161281,434.858673 L424.815072,436.911028 L433.528581,446.872126 L432.087926,448.132344 L423.374418,438.171247 L421.902892,439.458469 L420.822705,438.223623 L422.294231,436.9364 L420.763966,435.187034 C420.061841,434.384379 419.634506,433.747043 419.481949,433.275005 C419.329392,432.802967 419.33825,432.307809 419.508522,431.789515 C419.678795,431.271221 420.014327,430.793042 420.515128,430.354964 C420.981628,429.946891 421.624747,429.553854 422.444505,429.175841 L422.444505,429.175841 Z M438.514075,421.795166 L448.682852,432.651575 L447.305844,433.941365 L445.558086,432.075419 C445.639394,433.335529 445.484075,434.486318 445.092123,435.527823 C444.700171,436.569328 444.071808,437.495075 443.207016,438.305091 C441.670348,439.744429 439.836382,440.416339 437.705065,440.32084 C435.573747,440.225341 433.760408,439.379335 432.264992,437.782796 C430.80073,436.219519 430.09714,434.368396 430.154201,432.229373 C430.211261,430.09035 431.011439,428.298081 432.55476,426.852512 C433.446161,426.017572 434.430311,425.451672 435.507241,425.154798 C436.584171,424.857923 437.750521,424.833197 439.006328,425.080619 L437.137067,423.084956 L438.514075,421.795166 Z M433.926272,428.096775 C433.14796,428.825791 432.608664,429.689967 432.308368,430.68933 C432.008073,431.688693 431.987354,432.71653 432.246211,433.772871 C432.505068,434.829212 432.995882,435.743199 433.718666,436.514859 C434.435219,437.279867 435.316846,437.827794 436.363573,438.158657 C437.4103,438.489519 438.446851,438.539541 439.473257,438.308723 C440.499663,438.077905 441.39203,437.607341 442.150386,436.897019 C442.915394,436.180465 443.459784,435.308395 443.783573,434.280782 C444.107362,433.25317 444.145427,432.237185 443.897767,431.232798 C443.650108,430.228411 443.13997,429.313792 442.367338,428.488914 C441.189698,427.231639 439.791135,426.568468 438.171607,426.49938 C436.552078,426.430292 435.136981,426.962752 433.926272,428.096775 L433.926272,428.096775 Z M436.224903,414.37014 C436.521178,414.048226 436.888252,413.87819 437.326137,413.860029 C437.764022,413.841868 438.143916,413.980923 438.46583,414.277198 C438.781038,414.567301 438.947721,414.93129 438.965882,415.369174 C438.984043,415.807059 438.844988,416.186953 438.548712,416.508868 C438.258609,416.824076 437.894621,416.990758 437.456736,417.008919 C437.018852,417.02708 436.642311,416.891111 436.327103,416.601008 C436.005188,416.304733 435.835153,415.937658 435.816992,415.499774 C435.798831,415.061889 435.9348,414.685348 436.224903,414.37014 L436.224903,414.37014 Z M440.083586,419.22216 L441.389043,417.80373 L452.334087,427.877043 L451.02863,429.295473 L440.083586,419.22216 Z M443.297515,415.600314 L444.589943,414.133358 L446.221034,415.570392 C445.96379,414.566315 445.890062,413.681417 445.999848,412.915671 C446.109633,412.149924 446.396497,411.503759 446.860448,410.977157 C447.209917,410.580495 447.710002,410.267951 448.360716,410.039515 L448.911441,411.85486 C448.516386,412.041294 448.228482,412.237093 448.047722,412.442263 C447.625949,412.920992 447.415863,413.555843 447.417459,414.346834 C447.419054,415.137826 447.731175,416.014104 448.353832,416.975695 C448.8332,417.713864 450.040583,418.935516 451.976018,420.640685 L455.751123,423.966653 L454.458695,425.433609 L443.297515,415.600314 Z M464.505909,405.63608 L466.186284,404.930718 C466.651595,405.99965 466.910009,407.004279 466.961531,407.944635 C467.013054,408.884992 466.891703,409.795006 466.597475,410.674707 C466.303246,411.554408 465.808204,412.416165 465.112335,413.260005 C463.569824,415.130518 461.750135,416.087205 459.653213,416.130096 C457.556292,416.172986 455.734338,415.55656 454.187298,414.280799 C452.731673,413.080424 451.802513,411.564015 451.399791,409.731526 C450.884823,407.404798 451.410185,405.292145 452.975891,403.393504 C454.587989,401.438607 456.617194,400.489302 459.063566,400.54556 C460.795606,400.579822 462.451469,401.23649 464.031203,402.515583 L455.52424,412.83148 C456.883516,413.905146 458.329563,414.382883 459.862425,414.264707 C461.395286,414.14653 462.660404,413.4827 463.657817,412.273195 C464.139127,411.689539 464.505419,411.03763 464.756706,410.317449 C465.007993,409.597269 465.124336,408.904635 465.10574,408.239527 C465.087144,407.574419 464.887202,406.706612 464.505909,405.63608 L464.505909,405.63608 Z M461.415359,403.08747 C460.465405,402.634888 459.599748,402.402443 458.818362,402.390128 C458.036976,402.377813 457.246986,402.562183 456.44837,402.943244 C455.649753,403.324305 454.969208,403.85588 454.406713,404.537984 C453.478887,405.663104 453.043691,406.92863 453.101113,408.334598 C453.141404,409.360205 453.564267,410.459098 454.369714,411.631311 L461.415359,403.08747 Z" id="Valoriser-vos-marque" fill="#FFFFFF"></path>
            </g>
        </g>
    </g>
</svg>